<svg width="100" height="100" viewBox="0 0 100 100" xmlns="http://www.w3.org/2000/svg" xmlns:xlink="http://www.w3.org/1999/xlink">
    <defs>
        <path id="vqwb3grpma" d="M0 0h69.399v60.789H0z"/>
    </defs>
    <g fill="none" fill-rule="evenodd">
        <path d="M0 0h100v100H0z"/>
        <g transform="translate(15 20)">
            <mask id="e2jc2foscb" fill="#fff">
                <use xlink:href="#vqwb3grpma"/>
            </mask>
            <path d="M3.139 60.789c-.407 0-.81-.083-1.186-.244l-.393-.069-.657-.649-.152-.124-.044-.073-.168-.168-.051-.15-.165-.172-.065-.264-.02-.034-.027-.159-.028-.116L0 58.018l.079-.408c.012-.303.064-.517.088-.617l.065-.244a2.57 2.57 0 0 1 .266-.608L32.033 1.518A3.02 3.02 0 0 1 33.35.309c.41-.201.774-.258 1.02-.283l.214-.022.654-.004 1.024.337.27.273a3.2 3.2 0 0 1 .205.171l.24.16.032.047.062.045.288.485 31.842 55.154.034.364c.028.12.048.24.062.358l.1.384-.203.847-.03.178-.026.049-.046.184-.17.202-.02.037c-.176.299-.38.51-.513.632l-.146.163-.18.118c-.574.405-1.184.601-1.81.601H3.139z" fill="#000" mask="url(#e2jc2foscb)"/>
        </g>
        <path d="M81.696 77.553c-.008-.02-.006-.042-.017-.06-.003-.007 0-.015-.004-.02l-31.558-54.66c-.003-.004-.008-.006-.01-.01-.014-.02-.037-.03-.054-.05a.456.456 0 0 0-.152-.118c-.02-.01-.03-.033-.054-.04-.037-.014-.073.005-.11.001a.875.875 0 0 0-.09.002c-.06.007-.114.012-.168.04a.428.428 0 0 0-.204.175l-31.558 54.66c-.007.012-.005.027-.01.041-.014.028-.016.056-.024.087-.012.051-.025.1-.02.152.002.021.006.04.01.06.002.011-.004.023 0 .034.003.017.02.024.025.04.01.022.007.048.02.07.014.025.04.037.058.06.011.013.01.033.024.045.006.007.018.004.025.011a.473.473 0 0 0 .313.127h63.116a.476.476 0 0 0 .274-.096c.024-.018.04-.039.061-.06.028-.03.065-.05.086-.087.015-.028.013-.06.023-.09.007-.017.025-.027.03-.046.003-.015-.008-.029-.006-.044a.464.464 0 0 0-.026-.224" fill="#000"/>
        <path fill="#A1AAFF" d="m49.696 23.055 15.78 27.33 15.778 27.33H18.138l15.78-27.33z"/>
        <path stroke="#000" stroke-width=".75" stroke-linecap="round" stroke-linejoin="round" d="m49.696 23.055 15.78 27.33 15.778 27.33H18.138l15.78-27.33z"/>
        <path fill="#9176E5" d="m18.139 77.715 27.4-16.892 35.715 16.892z"/>
        <path stroke="#000" stroke-width=".75" stroke-linecap="round" stroke-linejoin="round" d="m18.139 77.715 27.4-16.892 35.715 16.892z"/>
        <path fill="#FFF8FF" d="m49.696 23.055-4.158 37.768-27.4 16.892z"/>
        <path stroke="#000" stroke-width=".75" stroke-linecap="round" stroke-linejoin="round" d="m49.696 23.055-4.158 37.768-27.4 16.892z"/>
    </g>
</svg>
