<svg width="100" height="100" viewBox="0 0 100 100" xmlns="http://www.w3.org/2000/svg" xmlns:xlink="http://www.w3.org/1999/xlink">
    <defs>
        <path id="yxfbxnc6qa" d="M0 0h69.399v60.788H0z"/>
    </defs>
    <g fill="none" fill-rule="evenodd">
        <path d="M0 0h100v100H0z"/>
        <g transform="translate(15 20)">
            <mask id="budlr98agb" fill="#fff">
                <use xlink:href="#yxfbxnc6qa"/>
            </mask>
            <path d="M3.139 60.788c-.407 0-.81-.083-1.186-.244l-.393-.069-.657-.649-.152-.123-.044-.074-.168-.168-.051-.149-.165-.173-.065-.263-.02-.034-.027-.159-.028-.117L0 58.017l.079-.408c.012-.303.064-.517.088-.616l.065-.245c.062-.213.15-.417.266-.607L32.033 1.518A3.014 3.014 0 0 1 33.35.309c.41-.202.774-.258 1.02-.284l.214-.021.654-.004 1.024.336.27.273a3.2 3.2 0 0 1 .205.171l.24.16.032.047.062.046.288.485 31.842 55.153.034.365c.028.12.048.24.062.357l.1.384-.203.847-.03.179-.026.049-.046.183-.17.202-.02.037c-.176.3-.38.511-.513.632l-.146.163-.18.119c-.574.404-1.184.6-1.81.6H3.139z" fill="#000" mask="url(#budlr98agb)"/>
        </g>
        <path d="M81.696 77.553c-.008-.021-.006-.042-.017-.061-.003-.006 0-.014-.004-.02l-31.558-54.66c-.003-.004-.008-.005-.01-.01-.014-.02-.037-.03-.054-.05a.432.432 0 0 0-.152-.117c-.02-.01-.03-.034-.054-.041-.037-.013-.073.006-.11.002a.875.875 0 0 0-.09.002c-.06.007-.114.012-.168.04a.428.428 0 0 0-.204.175L17.717 77.472c-.007.013-.005.028-.01.042-.014.028-.016.056-.024.087-.012.05-.025.099-.02.152.002.02.006.039.01.06.002.01-.004.023 0 .034.003.017.02.024.025.039.01.023.007.049.02.07.014.026.04.038.058.06.011.014.01.034.024.046.006.007.018.004.025.01a.473.473 0 0 0 .313.127h63.116a.476.476 0 0 0 .274-.095c.024-.018.04-.04.061-.061.028-.03.065-.05.086-.086.015-.028.013-.06.023-.09.007-.018.025-.027.03-.046.003-.016-.008-.03-.006-.044a.464.464 0 0 0-.026-.224" fill="#000"/>
        <path fill="red" d="m49.696 23.055 15.78 27.33 15.778 27.329H18.138l15.78-27.33z"/>
        <path stroke="#000" stroke-width=".75" stroke-linecap="round" stroke-linejoin="round" d="m49.696 23.055 15.78 27.33 15.778 27.329H18.138l15.78-27.33z"/>
        <path fill="#D81400" d="m18.139 77.714 27.4-16.891 35.715 16.89z"/>
        <path stroke="#000" stroke-width=".75" stroke-linecap="round" stroke-linejoin="round" d="m18.139 77.714 27.4-16.891 35.715 16.89z"/>
        <path fill="#FFFBF3" d="m49.696 23.055-4.158 37.768-27.4 16.89z"/>
        <path stroke="#000" stroke-width=".75" stroke-linecap="round" stroke-linejoin="round" d="m49.696 23.055-4.158 37.768-27.4 16.89z"/>
    </g>
</svg>
