<svg width="100" height="100" viewBox="0 0 100 100" xmlns="http://www.w3.org/2000/svg">
    <g fill="none" fill-rule="evenodd">
        <path d="M0 0h100v100H0z"/>
        <path d="M50.291 90.401c-.311 0-.618-.047-.913-.139l-.075-.024H48.8l-36.359-39.15-.089-.27a2.871 2.871 0 0 1-.218-.535l-.134-.46.024-.326a3.43 3.43 0 0 1 .003-.185c.004-.18.026-.369.069-.558l.028-.336.291-.527.301-.527.221-.151 35.5-37.671.28-.119c.154-.095.366-.206.622-.29l.391-.127.566-.006s.3.016.387.026h.354l1.07.479L87.679 47.25l.248.176.101.196.055.056.079.2.042.081c.128.236.217.488.268.752.057.239.083.469.083.7v.182l.018.329-.328.944-.051.063-.043.132-.406.451S52.497 89.469 52.473 89.493l-.249.382-1.059.404-.061.011c-.266.073-.54.111-.813.111" fill="#000"/>
        <path d="M85.967 49.41a.449.449 0 0 0-.031-.165c-.007-.02-.001-.04-.011-.06-.01-.016-.03-.022-.041-.038-.014-.02-.016-.045-.033-.063L50.644 11.723c-.024-.025-.06-.032-.087-.051-.023-.015-.033-.043-.058-.054-.014-.007-.03-.001-.044-.006a.48.48 0 0 0-.17-.022c-.038 0-.073-.006-.11.004-.012.003-.023-.003-.034 0-.054.019-.092.059-.136.093-.02.016-.048.017-.066.036L14.73 49.083c-.015.017-.018.04-.031.058-.01.014-.027.018-.036.033-.01.018-.004.038-.012.056a.455.455 0 0 0-.038.178c0 .035-.003.065.003.099.004.017-.003.033.002.05.015.052.053.092.084.135.012.017.01.039.025.054l35.2 37.903c.002 0 .002.002.004.003l.004.005a.468.468 0 0 0 .2.124c.007.002.012.009.019.01a.48.48 0 0 0 .34-.027c.004-.001.009 0 .013-.002.009-.005.01-.016.02-.021.042-.024.085-.047.119-.084l35.206-37.911c.018-.02.018-.045.032-.066.024-.037.059-.066.073-.11.006-.017-.001-.035.003-.053.008-.036.006-.07.006-.106" fill="#000"/>
        <path fill="#52DAFF" d="m50.29 12.056-5.535 44.188 40.742-6.828z"/>
        <path stroke="#000" stroke-width=".75" stroke-linecap="round" stroke-linejoin="round" d="m50.29 12.056-5.535 44.188 40.742-6.828z"/>
        <path fill="#2B82D8" d="m50.29 87.326-5.535-31.082 40.742-6.828z"/>
        <path stroke="#000" stroke-width=".75" stroke-linecap="round" stroke-linejoin="round" d="m50.29 87.326-5.535-31.082 40.742-6.828z"/>
        <path fill="#EEFDFF" d="m50.29 12.056-35.206 37.36 29.671 6.828z"/>
        <path stroke="#000" stroke-width=".75" stroke-linecap="round" stroke-linejoin="round" d="m50.29 12.056-35.206 37.36 29.671 6.828z"/>
        <path fill="#52DAFF" d="m15.084 49.417 35.207 37.91-5.535-31.082z"/>
        <path stroke="#000" stroke-width=".75" stroke-linecap="round" stroke-linejoin="round" d="m15.084 49.417 35.207 37.91-5.535-31.082z"/>
    </g>
</svg>
