<svg width="100" height="100" viewBox="0 0 100 100" xmlns="http://www.w3.org/2000/svg">
    <g fill="none" fill-rule="evenodd">
        <path d="M0 0h100v100H0z"/>
        <path d="M50.291 90.401c-.311 0-.618-.047-.913-.139l-.075-.024H48.8L12.441 51.089l-.089-.271a2.888 2.888 0 0 1-.218-.534l-.134-.46.024-.326a3.488 3.488 0 0 1 .003-.186c.004-.18.026-.368.069-.557l.028-.337.291-.527.301-.527.221-.151 35.5-37.671.28-.119c.154-.094.366-.206.622-.289l.391-.128.566-.006s.3.016.387.026h.354l1.07.479L87.679 47.25l.248.176.101.196.055.057.079.2.042.08c.128.237.217.488.268.753.057.238.083.468.083.7v.182l.018.328-.328.944-.051.064-.043.131-.406.451S52.497 89.469 52.473 89.493l-.249.382-1.059.405-.061.01c-.266.073-.54.111-.813.111" fill="#000"/>
        <path d="M85.967 49.411a.454.454 0 0 0-.031-.167c-.007-.019-.001-.039-.011-.058-.01-.017-.03-.023-.041-.039-.014-.02-.016-.045-.033-.063l-35.207-37.36c-.024-.026-.06-.033-.087-.052-.023-.016-.033-.043-.058-.054-.014-.007-.03 0-.044-.006a.458.458 0 0 0-.17-.022c-.038 0-.073-.006-.11.004-.012.002-.023-.003-.034.001-.054.017-.092.058-.136.092-.02.016-.048.017-.066.036L14.73 49.084c-.015.016-.018.04-.031.056-.01.015-.027.02-.036.034-.01.017-.004.038-.012.056a.455.455 0 0 0-.038.178c0 .034-.003.065.003.1.004.016-.003.032.002.05.015.051.053.09.084.133.012.017.01.04.025.055l35.2 37.903.004.003.004.005a.478.478 0 0 0 .2.124c.007.002.012.01.019.011.044.014.09.02.136.02.07 0 .14-.018.204-.047.004-.002.009 0 .013-.003.009-.005.01-.016.02-.02.042-.025.085-.049.119-.085l35.206-37.91c.018-.02.018-.046.032-.067.024-.037.059-.066.073-.109.006-.018-.001-.036.003-.054.008-.036.006-.069.006-.106" fill="#000"/>
        <path fill="#A1AAFF" d="m50.29 12.057-5.535 44.188 40.742-6.828z"/>
        <path stroke="#000" stroke-width=".75" stroke-linecap="round" stroke-linejoin="round" d="m50.29 12.057-5.535 44.188 40.742-6.828z"/>
        <path fill="#9176E5" d="m50.29 87.327-5.535-31.083 40.742-6.827z"/>
        <path stroke="#000" stroke-width=".75" stroke-linecap="round" stroke-linejoin="round" d="m50.29 87.327-5.535-31.083 40.742-6.827z"/>
        <path fill="#FFF8FF" d="m50.29 12.057-35.206 37.36 29.671 6.828z"/>
        <path stroke="#000" stroke-width=".75" stroke-linecap="round" stroke-linejoin="round" d="m50.29 12.057-35.206 37.36 29.671 6.828z"/>
        <path fill="#D5BDFF" d="m15.084 49.417 35.207 37.91-5.535-31.083z"/>
        <path stroke="#000" stroke-width=".75" stroke-linecap="round" stroke-linejoin="round" d="m15.084 49.417 35.207 37.91-5.535-31.083z"/>
    </g>
</svg>
