<svg width="100" height="100" viewBox="0 0 100 100" xmlns="http://www.w3.org/2000/svg">
    <g fill="none" fill-rule="evenodd">
        <path d="M0 0h100v100H0z"/>
        <path d="m49.016 91.967-.172-.07a2.543 2.543 0 0 1-.584-.222l-.242-.128-.153-.127-.574-.44-.116-.305L6.351 36.63l-.071-.301a3.225 3.225 0 0 1-.174-.557L6 35.285l.035-.337.008-.165c.007-.177.031-.365.073-.558l.032-.359.289-.557.277-.516.192-.147 19.239-22.102c.496-.564 1.141-.893 1.824-.934l8.926-.577.058-.03L62.446 9l.134.07 10.779 1.611c.65.103 1.241.453 1.678.993L92.21 32.622l.187.133.145.273.094.113.078.208.267.513.033.371c.045.211.071.429.078.65l.007.261-.007.074a3.185 3.185 0 0 1-.241 1.109l-.065.285-.37.496-40.755 53.581-.111.286-.48.375-.457.419-.359.049a2.416 2.416 0 0 1-.792.149h-.446z" fill="#000"/>
        <path d="M90.742 35.07c.004-.032.001-.062 0-.095a.538.538 0 0 0-.039-.19c-.008-.018-.003-.04-.012-.057-.007-.013-.02-.016-.029-.029-.01-.016-.013-.038-.026-.054L73.32 13.52a.426.426 0 0 0-.264-.155L61.99 11.71c-.01-.003-.02.005-.03.005-.01-.002-.017-.01-.027-.01H37.476c-.004 0-.007.005-.01.005-.006 0-.01-.005-.015-.004l-9.358.606a.418.418 0 0 0-.287.147L8.503 34.633c-.015.018-.019.042-.03.062-.01.014-.026.018-.035.032-.009.019-.004.039-.01.057a.539.539 0 0 0-.04.187c0 .035-.005.064 0 .098.001.015-.005.031 0 .047.012.063.045.112.076.163.01.014.007.033.018.047L49.09 89.088c.014.019.034.027.05.043.008.008.014.02.022.028.003.001.003.007.006.01.002.002.003 0 .004.002.022.02.043.03.068.044a.388.388 0 0 0 .175.044l.007.002h.002a.396.396 0 0 0 .235-.085c.005-.004.011-.002.015-.005.008-.008.008-.02.016-.029.021-.018.046-.03.064-.053l40.893-53.761c.01-.014.01-.032.017-.047.031-.048.063-.098.078-.158.003-.017-.002-.035 0-.053" fill="#000"/>
        <path fill="red" d="M49.422 88.754 73 40.096H26.41z"/>
        <path stroke="#000" stroke-width=".75" stroke-linecap="round" stroke-linejoin="round" d="M49.422 88.754 73 40.096H26.41z"/>
        <path fill="#FF4800" d="m8.814 34.994 40.608 53.76L26.41 40.097z"/>
        <path stroke="#000" stroke-width=".75" stroke-linecap="round" stroke-linejoin="round" d="m8.814 34.994 40.608 53.76L26.41 40.097z"/>
        <path fill="#760036" d="M72.999 40.096 49.422 88.754l40.893-53.76z"/>
        <path stroke="#000" stroke-width=".75" stroke-linecap="round" stroke-linejoin="round" d="M72.999 40.096 49.422 88.754l40.893-53.76z"/>
        <path fill="#FFFBF3" d="M72.999 41.1h-46.59l11.068-28.888h24.456z"/>
        <path stroke="#000" stroke-width=".75" stroke-linecap="round" stroke-linejoin="round" d="M72.999 41.1h-46.59l11.068-28.888h24.456z"/>
        <path fill="#D81400" d="M90.315 34.994 73 13.868l-11.067-1.656L73 41.1z"/>
        <path stroke="#000" stroke-width=".75" stroke-linecap="round" stroke-linejoin="round" d="M90.315 34.994 73 13.868l-11.067-1.656L73 41.1z"/>
        <path fill="#FF9477" d="m8.814 34.994 19.304-22.177 9.358-.605L26.41 41.1z"/>
        <path stroke="#000" stroke-width=".75" stroke-linecap="round" stroke-linejoin="round" d="m8.814 34.994 19.304-22.177 9.358-.605L26.41 41.1z"/>
    </g>
</svg>
